<svg width="31" height="31" viewBox="0 0 31 31" fill="none" xmlns="http://www.w3.org/2000/svg">
<path d="M15.5 28.4168C22.6337 28.4168 28.4167 22.6338 28.4167 15.5002C28.4167 8.36649 22.6337 2.5835 15.5 2.5835C8.36636 2.5835 2.58337 8.36649 2.58337 15.5002C2.58337 22.6338 8.36636 28.4168 15.5 28.4168Z" fill="#07BC44"/>
<path d="M15.5 10.3335V20.6668M10.3334 15.5002H20.6667M28.4167 15.5002C28.4167 22.6338 22.6337 28.4168 15.5 28.4168C8.36636 28.4168 2.58337 22.6338 2.58337 15.5002C2.58337 8.36649 8.36636 2.5835 15.5 2.5835C22.6337 2.5835 28.4167 8.36649 28.4167 15.5002Z" stroke="white" stroke-width="2" stroke-linecap="round" stroke-linejoin="round"/>
</svg>
